<?xml version="1.0" encoding="utf-8"?>
<!-- Generator: Adobe Illustrator 19.2.1, SVG Export Plug-In . SVG Version: 6.00 Build 0)  -->
<svg version="1.1" id="Capa_1" xmlns="http://www.w3.org/2000/svg" xmlns:xlink="http://www.w3.org/1999/xlink" x="0px" y="0px"
	 viewBox="0 0 958.4 180" style="enable-background:new 0 0 958.4 180;" xml:space="preserve">
<style type="text/css">
	.st0{fill:#FFFFFF;}
</style>
<g>
	<g>
		<path class="st0" d="M23.7,150.4V29.6h86.9v21.9H46.5v33h60.6v21.1H46.5v44.7H23.7z"/>
		<path class="st0" d="M212.1,127.6h-63.2l-10.4,22.8h-24.7l54.2-120.9H193l54.2,120.9h-24.9L212.1,127.6z M180.5,54.8l-22.5,51.5
			H203L180.5,54.8z"/>
		<path class="st0" d="M337,29.3h22.8v121.1h-14.2v0.2l-63.6-81.7v81.5h-22.8V29.5h18.5l59.2,75V29.3z"/>
		<path class="st0" d="M478.4,51.7c-10.5-10.4-25.2-15.5-38.9-15.5c-35.4,0-53.5,25.9-53.4,53.9c0,28.5,18.1,53,53.4,53
			c13,0,26.4-4.5,36.8-14V95.3h-42.1v-8.1h51v45.3c-12.6,12.6-27.6,19.5-45.6,19.5c-41.1,0-62.4-28.7-62.4-61.7
			c-0.2-37.8,25.6-62.5,62.4-62.5c15.9,0,32,6,44.2,18.1L478.4,51.7z"/>
		<path class="st0" d="M603,29.5v75.1c0,63.2-92.6,63.4-92.6,0V29.5h9.2v75.1c0,52,74.3,51.8,74.3,0V29.5H603z"/>
		<path class="st0" d="M637.5,85.3h70.8v8.5h-70.8v47.7h76.3v9h-85.5V29.5h83.4v8.8h-74.3V85.3z"/>
		<path class="st0" d="M816.4,52.8c-8.8-14.2-23-16.2-36.6-16.4c-14.2,0-36.6,5.2-36.6,24.5c0,15.4,16.6,19,37,22.8
			c23.3,4.5,47.5,8.6,47.5,34.7c-0.2,27.3-27.6,33.9-47.8,33.9c-18.8,0-40.2-7.8-49.6-26.3l8.3-4.1c7.4,14.7,26.4,21.9,41.3,21.9
			c14.9,0,38.5-4.1,38.5-25.6c0.2-18.1-19.9-22.1-39.7-25.9c-22.1-4.3-44.7-8.8-44.7-31.1c-0.5-25.6,26.1-33.5,45.9-33.5
			c17.3,0,32.3,2.8,44.2,20.6L816.4,52.8z"/>
		<path class="st0" d="M881.7,37.9H838v-8.3h96.7v8.3H891v112.4h-9.3V37.9z"/>
	</g>
</g>
</svg>
